<svg width="40" height="40" viewBox="0 0 40 40" fill="none" xmlns="http://www.w3.org/2000/svg">
<rect width="40" height="40" rx="5" fill="white"/>
<path d="M33.4256 16.0996C33.1229 15.6744 32.7155 15.3345 32.2429 15.113C31.769 14.8905 31.2459 14.7933 30.7237 14.8307C30.2015 14.868 29.6977 15.0387 29.2602 15.3263C28.8249 15.6131 28.4712 16.0077 28.2336 16.4716C27.9999 16.9698 27.9247 17.5276 28.0182 18.0698C28.1117 18.612 28.3693 19.1125 28.7562 19.5036C29.8158 19.5872 30.8703 19.2893 31.7296 18.6636C32.5852 18.0414 33.1885 17.1308 33.4256 16.0996ZM24.4002 4.39964L22.4669 3.34897L14.0536 7.99031L14.7242 8.35031L16.0002 9.01431L18.3096 7.74231L24.4016 4.37831L24.4002 4.39964ZM25.1789 4.07964C25.2286 4.09201 25.2742 4.11688 25.3116 4.15189C25.3489 4.1869 25.3767 4.23087 25.3922 4.27964L28.2109 12.5223C28.24 12.5876 28.2424 12.6618 28.2175 12.7289C28.1925 12.7959 28.1423 12.8505 28.0776 12.881C27.0048 13.4632 26.16 14.3906 25.6802 15.513C25.2026 16.6322 25.1203 17.8807 25.4469 19.053C25.8388 20.3314 26.6669 21.4318 27.7869 22.1623C28.9096 22.8956 30.2562 23.2156 31.5922 23.069C31.6653 23.0647 31.7379 23.0828 31.8003 23.1209C31.8628 23.159 31.912 23.2154 31.9416 23.2823L34.8536 31.7423C34.8722 31.8104 34.8693 31.8827 34.8452 31.9491C34.8211 32.0154 34.7769 32.0727 34.7189 32.113L25.7696 37.2996C25.727 37.3177 25.6811 37.3267 25.6349 37.3263C25.5522 37.3416 25.4669 37.3274 25.3936 37.2863L22.2536 35.333C22.1964 35.3033 22.1499 35.2568 22.1202 35.1996L15.9869 21.2223L6.64689 26.489C6.59094 26.5171 6.52959 26.5329 6.46701 26.5352C6.40443 26.5375 6.34208 26.5263 6.28422 26.5023L4.16156 25.305C4.09273 25.268 4.04061 25.2062 4.01583 25.1321C3.99106 25.058 3.99549 24.9772 4.02822 24.9063L13.1016 7.83964C13.1355 7.78146 13.1868 7.73532 13.2482 7.70764L22.2949 2.70631C22.3444 2.68026 22.3996 2.66666 22.4556 2.66666C22.5115 2.66666 22.5667 2.68026 22.6162 2.70631L25.1802 4.07964H25.1789ZM13.9602 8.66498L13.5202 8.43964L4.77356 24.9463L6.36956 25.837L13.9122 16.057C13.9492 16.0118 13.9965 15.9762 14.0501 15.953C14.1036 15.9298 14.162 15.9197 14.2202 15.9236C14.2772 15.9339 14.331 15.9572 14.3775 15.9916C14.4239 16.0261 14.4618 16.0708 14.4882 16.1223L22.7016 34.877L24.8962 36.2196L16.0802 10.673L15.7056 9.60897L13.9482 8.65164L13.9616 8.66498H13.9602ZM27.4869 18.5076C27.286 17.7719 27.3425 16.9896 27.6469 16.2903C27.9526 15.5877 28.4875 15.0096 29.1642 14.6503C29.8526 14.2694 30.6438 14.1158 31.4247 14.2116C32.2057 14.3074 32.9363 14.6476 33.5122 15.1836C33.8326 15.4886 34.0895 15.8541 34.2679 16.2589C34.4464 16.6636 34.5429 17.0997 34.552 17.542C34.561 17.9843 34.4824 18.424 34.3207 18.8357C34.1589 19.2475 33.9172 19.6231 33.6096 19.941L33.5122 20.0383C32.8294 20.6815 31.9275 21.0408 30.9895 21.0432C30.0515 21.0457 29.1477 20.6912 28.4616 20.0516C28.0103 19.6286 27.6747 19.097 27.4869 18.5076Z" fill="black"/>
</svg>
