<svg width="112" height="112" viewBox="0 0 112 112" fill="none" xmlns="http://www.w3.org/2000/svg">
  <circle cx="56" cy="56" r="56" fill="#111111" />
  <path
    d="M47.6504 60.3008V77H42.0254V34.3438H57.7578C62.4258 34.3438 66.0781 35.5352 68.7148 37.918C71.3711 40.3008 72.6992 43.4551 72.6992 47.3809C72.6992 51.5215 71.4004 54.7148 68.8027 56.9609C66.2246 59.1875 62.5234 60.3008 57.6992 60.3008H47.6504ZM47.6504 55.7012H57.7578C60.7656 55.7012 63.0703 54.998 64.6719 53.5918C66.2734 52.166 67.0742 50.1152 67.0742 47.4395C67.0742 44.9004 66.2734 42.8691 64.6719 41.3457C63.0703 39.8223 60.873 39.0312 58.0801 38.9727H47.6504V55.7012Z"
    fill="#00CED1" />
  <path
    d="M47.6504 60.3008V57.3008H44.6504V60.3008H47.6504ZM47.6504 77V80H50.6504V77H47.6504ZM42.0254 77H39.0254V80H42.0254V77ZM42.0254 34.3438V31.3438H39.0254V34.3438H42.0254ZM68.7148 37.918L66.7034 40.1438L66.7116 40.1511L68.7148 37.918ZM68.8027 56.9609L70.7636 59.2314L70.7649 59.2303L68.8027 56.9609ZM47.6504 55.7012H44.6504V58.7012H47.6504V55.7012ZM64.6719 53.5918L66.6513 55.8461L66.659 55.8393L66.6667 55.8325L64.6719 53.5918ZM58.0801 38.9727L58.143 35.9733L58.1115 35.9727H58.0801V38.9727ZM47.6504 38.9727V35.9727H44.6504V38.9727H47.6504ZM44.6504 60.3008V77H50.6504V60.3008H44.6504ZM47.6504 74H42.0254V80H47.6504V74ZM45.0254 77V34.3438H39.0254V77H45.0254ZM42.0254 37.3438H57.7578V31.3438H42.0254V37.3438ZM57.7578 37.3438C61.9209 37.3438 64.7725 38.3988 66.7034 40.1437L70.7263 35.6922C67.3837 32.6715 62.9307 31.3438 57.7578 31.3438V37.3438ZM66.7116 40.1511C68.6658 41.9041 69.6992 44.2118 69.6992 47.3809H75.6992C75.6992 42.6984 74.0764 38.6974 70.7181 35.6848L66.7116 40.1511ZM69.6992 47.3809C69.6992 50.8464 68.644 53.1323 66.8405 54.6916L70.7649 59.2303C74.1568 56.2974 75.6992 52.1965 75.6992 47.3809H69.6992ZM66.8419 54.6905C64.9974 56.2834 62.0999 57.3008 57.6992 57.3008V63.3008C62.947 63.3008 67.4518 62.0916 70.7636 59.2314L66.8419 54.6905ZM57.6992 57.3008H47.6504V63.3008H57.6992V57.3008ZM47.6504 58.7012H57.7578V52.7012H47.6504V58.7012ZM57.7578 58.7012C61.1967 58.7012 64.3139 57.8984 66.6513 55.8461L62.6925 51.3375C61.8267 52.0977 60.3346 52.7012 57.7578 52.7012V58.7012ZM66.6667 55.8325C69.0605 53.7014 70.0742 50.7428 70.0742 47.4395H64.0742C64.0742 49.4877 63.4863 50.6307 62.6771 51.3511L66.6667 55.8325ZM70.0742 47.4395C70.0742 44.2123 69.0268 41.3477 66.7395 39.172L62.6042 43.5194C63.5201 44.3906 64.0742 45.5885 64.0742 47.4395H70.0742ZM66.7395 39.172C64.4639 37.0075 61.479 36.0433 58.143 35.9733L58.0172 41.972C60.2671 42.0192 61.6767 42.6371 62.6042 43.5194L66.7395 39.172ZM58.0801 35.9727H47.6504V41.9727H58.0801V35.9727ZM44.6504 38.9727V55.7012H50.6504V38.9727H44.6504Z"
    fill="#00CED1" />
</svg>
